<svg id="Icon_ionic-ios-checkmark-circle-outline" data-name="Icon ionic-ios-checkmark-circle-outline" xmlns="http://www.w3.org/2000/svg" width="32" height="32" viewBox="0 0 32 32">
  <path id="Tracciato_3" data-name="Tracciato 3" d="M19.375,3.375a16,16,0,1,0,16,16,16,16,0,0,0-16-16Z" transform="translate(-3.375 -3.375)" fill="#92e254"/>
  <path id="Tracciato_2" data-name="Tracciato 2" d="M27.118,13.671,25.747,12.3a.3.3,0,0,0-.218-.091h0a.286.286,0,0,0-.218.091l-9.5,9.327-3.458-3.37a.307.307,0,0,0-.436,0l-1.386,1.351a.3.3,0,0,0,0,.433l4.362,4.25a1.394,1.394,0,0,0,.911.433,1.46,1.46,0,0,0,.9-.417h.008L27.125,14.1A.318.318,0,0,0,27.118,13.671Z" transform="translate(-2.815 -2.459)" fill="#fff"/>
</svg>
