<svg xmlns="http://www.w3.org/2000/svg" xmlns:xlink="http://www.w3.org/1999/xlink" width="570" height="911.999" viewBox="0 0 570 911.999">
  <defs>
    <filter id="Rettangolo_2" x="0" y="81.999" width="570" height="830" filterUnits="userSpaceOnUse">
      <feOffset dy="3" input="SourceAlpha"/>
      <feGaussianBlur stdDeviation="5" result="blur"/>
      <feFlood flood-opacity="0.2"/>
      <feComposite operator="in" in2="blur"/>
      <feComposite in="SourceGraphic"/>
    </filter>
    <filter id="_25:00" x="91" y="270.301" width="388" height="160" filterUnits="userSpaceOnUse">
      <feOffset dy="3" input="SourceAlpha"/>
      <feGaussianBlur stdDeviation="3" result="blur-2"/>
      <feFlood flood-opacity="0.161"/>
      <feComposite operator="in" in2="blur-2"/>
      <feComposite in="SourceGraphic"/>
    </filter>
    <filter id="time_to_focus" x="154" y="223.301" width="262" height="56" filterUnits="userSpaceOnUse">
      <feOffset dy="3" input="SourceAlpha"/>
      <feGaussianBlur stdDeviation="3" result="blur-3"/>
      <feFlood flood-opacity="0.161"/>
      <feComposite operator="in" in2="blur-3"/>
      <feComposite in="SourceGraphic"/>
    </filter>
    <filter id="working_at" x="191" y="713.999" width="188" height="51" filterUnits="userSpaceOnUse">
      <feOffset dy="3" input="SourceAlpha"/>
      <feGaussianBlur stdDeviation="3" result="blur-4"/>
      <feFlood flood-opacity="0.161"/>
      <feComposite operator="in" in2="blur-4"/>
      <feComposite in="SourceGraphic"/>
    </filter>
    <filter id="Icon_material-pause-circle-filled" x="240" y="532.999" width="98" height="98" filterUnits="userSpaceOnUse">
      <feOffset dy="3" input="SourceAlpha"/>
      <feGaussianBlur stdDeviation="3" result="blur-5"/>
      <feFlood flood-opacity="0.161"/>
      <feComposite operator="in" in2="blur-5"/>
      <feComposite in="SourceGraphic"/>
    </filter>
    <filter id="Icon_material-settings-backup-restore" x="244" y="541.999" width="90" height="79.714" filterUnits="userSpaceOnUse">
      <feOffset dy="3" input="SourceAlpha"/>
      <feGaussianBlur stdDeviation="3" result="blur-6"/>
      <feFlood flood-opacity="0.161"/>
      <feComposite operator="in" in2="blur-6"/>
      <feComposite in="SourceGraphic"/>
    </filter>
    <filter id="Icon_awesome-stop-circle" x="240" y="532.999" width="98" height="98" filterUnits="userSpaceOnUse">
      <feOffset dy="3" input="SourceAlpha"/>
      <feGaussianBlur stdDeviation="3" result="blur-7"/>
      <feFlood flood-opacity="0.161"/>
      <feComposite operator="in" in2="blur-7"/>
      <feComposite in="SourceGraphic"/>
    </filter>
    <filter id="Icon_ionic-ios-play-circle" x="240" y="532.999" width="98" height="98" filterUnits="userSpaceOnUse">
      <feOffset dy="3" input="SourceAlpha"/>
      <feGaussianBlur stdDeviation="3" result="blur-8"/>
      <feFlood flood-opacity="0.161"/>
      <feComposite operator="in" in2="blur-8"/>
      <feComposite in="SourceGraphic"/>
    </filter>
  </defs>
  <g id="Raggruppa_14" data-name="Raggruppa 14" transform="translate(-675 -126.001)">
    <g transform="matrix(1, 0, 0, 1, 675, 126)" filter="url(#Rettangolo_2)">
      <rect id="Rettangolo_2-2" data-name="Rettangolo 2" width="540" height="800" rx="32" transform="translate(15 94)" fill="#f54242"/>
    </g>
    <g id="Raggruppa_2" data-name="Raggruppa 2" transform="translate(790 126)">
      <g id="Raggruppa_4" data-name="Raggruppa 4">
        <path id="Tracciato_1" data-name="Tracciato 1" d="M233.627,37.588c-22.368,0-37.067,6.95-46.718,16.349V6.223A6.222,6.222,0,0,0,180.687,0h-19.81a6.222,6.222,0,0,0-6.222,6.222V53.937C145,44.538,130.3,37.588,107.937,37.588,38.862,37.588.006,92.437,0,92.445S38.862,147.3,107.937,147.3c27.535,0,43.449-10.532,52.632-23.2a53.9,53.9,0,0,0,10.213-31.657A53.894,53.894,0,0,0,180.995,124.1c9.183,12.668,25.1,23.2,52.632,23.2,69.075,0,107.931-54.849,107.937-54.857S302.7,37.588,233.627,37.588" fill="#92e254"/>
      </g>
    </g>
    <g id="Raggruppa_13" data-name="Raggruppa 13">
      <g transform="matrix(1, 0, 0, 1, 675, 126)" filter="url(#_25:00)">
        <text id="_25:00-2" data-name="25:00" transform="translate(285 388.3)" fill="#fff" font-size="120" font-family="Rubik-Bold, Rubik" font-weight="700" letter-spacing="0.03em"><tspan x="-184" y="0">25:00</tspan></text>
      </g>
      <g id="Rettangolo_9" data-name="Rettangolo 9" transform="translate(730 900)" fill="none" stroke="#fff" stroke-width="2">
        <rect width="460" height="80" rx="16" stroke="none"/>
        <rect x="1" y="1" width="458" height="78" rx="15" fill="none"/>
      </g>
      <g transform="matrix(1, 0, 0, 1, 675, 126)" filter="url(#time_to_focus)">
        <text id="time_to_focus-2" data-name="time to focus" transform="translate(285 259.3)" fill="#fff" font-size="32" font-family="Rubik-Regular, Rubik" letter-spacing="0.03em"><tspan x="-121" y="0">TIME TO FOCUS</tspan></text>
      </g>
      <g transform="matrix(1, 0, 0, 1, 675, 126)" filter="url(#working_at)">
        <text id="working_at-2" data-name="working at" transform="translate(285 746)" fill="#fff" font-size="28" font-family="Rubik-Regular, Rubik" letter-spacing="0.03em"><tspan x="-84" y="0">WORKING AT</tspan></text>
      </g>
      <text id="next:_short_break_5_min_" data-name="next: short break (+5 min)" transform="translate(960 563)" fill="#fff" font-size="20" font-family="Rubik-Regular, Rubik" letter-spacing="0.03em"><tspan x="-145" y="0">NEXT: SHORT BREAK (+5 MIN)</tspan></text>
      <g id="Componente_1_1" data-name="Componente 1 – 1" transform="translate(924 665)">
        <g transform="matrix(1, 0, 0, 1, -249, -539)" filter="url(#Icon_material-pause-circle-filled)">
          <path id="Icon_material-pause-circle-filled-2" data-name="Icon material-pause-circle-filled" d="M43,3A40,40,0,1,0,83,43,40.015,40.015,0,0,0,43,3ZM39,59H31V27h8Zm16,0H47V27h8Z" transform="translate(246 536)" fill="#fff" opacity="0"/>
        </g>
        <g transform="matrix(1, 0, 0, 1, -249, -539)" filter="url(#Icon_material-settings-backup-restore)">
          <path id="Icon_material-settings-backup-restore-2" data-name="Icon material-settings-backup-restore" d="M48,35.357a6.857,6.857,0,1,0-6.857,6.857A6.877,6.877,0,0,0,48,35.357ZM41.143,4.5A30.86,30.86,0,0,0,10.286,35.357H0L13.714,49.071,27.429,35.357H17.143A24.016,24.016,0,1,1,27.223,54.9l-4.869,4.937A30.858,30.858,0,1,0,41.143,4.5Z" transform="translate(253 543.5)" fill="#fff" opacity="0"/>
        </g>
        <g transform="matrix(1, 0, 0, 1, -249, -539)" filter="url(#Icon_awesome-stop-circle)">
          <path id="Icon_awesome-stop-circle-2" data-name="Icon awesome-stop-circle" d="M40.563.563a40,40,0,1,0,40,40A39.993,39.993,0,0,0,40.563.563Zm15.484,52.9a2.588,2.588,0,0,1-2.581,2.581H27.659a2.588,2.588,0,0,1-2.581-2.581V27.659a2.588,2.588,0,0,1,2.581-2.581H53.466a2.588,2.588,0,0,1,2.581,2.581Z" transform="translate(248.44 538.44)" fill="#fff" opacity="0"/>
        </g>
        <g transform="matrix(1, 0, 0, 1, -249, -539)" filter="url(#Icon_ionic-ios-play-circle)">
          <path id="Icon_ionic-ios-play-circle-2" data-name="Icon ionic-ios-play-circle" d="M43.375,3.375a40,40,0,1,0,40,40A39.994,39.994,0,0,0,43.375,3.375ZM59.49,44.125,33.106,60.087a.856.856,0,0,1-1.288-.75V27.413a.852.852,0,0,1,1.288-.75L59.49,42.625A.882.882,0,0,1,59.49,44.125Z" transform="translate(245.63 535.62)" fill="#fff"/>
        </g>
      </g>
    </g>
  </g>
</svg>
