<svg xmlns="http://www.w3.org/2000/svg" xmlns:xlink="http://www.w3.org/1999/xlink" width="220.84" height="34.4" viewBox="0 0 220.84 34.4">
  <defs>
    <clipPath id="clip-path">
      <rect id="Rettangolo_6" data-name="Rettangolo 6" width="21.824" height="9.412" fill="none"/>
    </clipPath>
  </defs>
  <g id="Raggruppa_12" data-name="Raggruppa 12" transform="translate(-100.76 -30)">
    <path id="Tracciato_13" data-name="Tracciato 13" d="M9.72,0a1,1,0,0,1-.74-.3,1,1,0,0,1-.3-.74V-20.56H1.8a1,1,0,0,1-.74-.3,1,1,0,0,1-.3-.74v-5.36a1,1,0,0,1,.3-.74A1.006,1.006,0,0,1,1.8-28H24.28a1,1,0,0,1,.74.3,1,1,0,0,1,.3.74v5.36a1,1,0,0,1-.3.74,1,1,0,0,1-.74.3H17.4V-1.04a1,1,0,0,1-.3.74,1,1,0,0,1-.74.3ZM41.48.4A16.928,16.928,0,0,1,34.82-.8a9.842,9.842,0,0,1-4.44-3.62,11.287,11.287,0,0,1-1.74-6.02q-.04-1.68-.04-3.46t.04-3.54a11.324,11.324,0,0,1,1.74-6,10.161,10.161,0,0,1,4.46-3.7,16.253,16.253,0,0,1,6.64-1.26,16.146,16.146,0,0,1,6.6,1.26,10.291,10.291,0,0,1,4.48,3.7,10.971,10.971,0,0,1,1.72,6q.08,1.76.08,3.54t-.08,3.46a11.287,11.287,0,0,1-1.74,6.02A9.842,9.842,0,0,1,48.1-.8,16.814,16.814,0,0,1,41.48.4Zm0-6.8a3.858,3.858,0,0,0,2.76-1.02,4.422,4.422,0,0,0,1.12-3.26q.08-1.72.08-3.34t-.08-3.3a5.6,5.6,0,0,0-.54-2.44,3.144,3.144,0,0,0-1.36-1.4,4.288,4.288,0,0,0-1.98-.44,4.412,4.412,0,0,0-2,.44,3.117,3.117,0,0,0-1.38,1.4,5.6,5.6,0,0,0-.54,2.44q-.04,1.68-.04,3.3t.04,3.34A4.6,4.6,0,0,0,38.7-7.42,3.841,3.841,0,0,0,41.48-6.4ZM60.76,0A1.073,1.073,0,0,1,60-.3a.974.974,0,0,1-.32-.74V-26.96A.974.974,0,0,1,60-27.7a1.074,1.074,0,0,1,.76-.3h5.32a1.38,1.38,0,0,1,1.08.4q.36.4.48.56l6.4,11.12,6.4-11.12q.12-.16.48-.56A1.38,1.38,0,0,1,82-28h5.32a1.006,1.006,0,0,1,.74.3,1,1,0,0,1,.3.74V-1.04a1,1,0,0,1-.3.74,1,1,0,0,1-.74.3h-6a1,1,0,0,1-.74-.3,1,1,0,0,1-.3-.74V-14l-3.6,6.32a3.655,3.655,0,0,1-.52.64,1.245,1.245,0,0,1-.92.32H72.8a1.189,1.189,0,0,1-.88-.32,3.655,3.655,0,0,1-.52-.64L67.8-14V-1.04a1,1,0,0,1-.3.74,1,1,0,0,1-.74.3ZM93.12,0a.783.783,0,0,1-.6-.26.883.883,0,0,1-.24-.62.886.886,0,0,1,.04-.28l9.12-25.6a2.319,2.319,0,0,1,.56-.84,1.514,1.514,0,0,1,1.12-.4h7.32a1.571,1.571,0,0,1,1.16.4,1.91,1.91,0,0,1,.52.84l9.16,25.6a.886.886,0,0,1,.04.28.846.846,0,0,1-.26.62.846.846,0,0,1-.62.26h-6.16a1.365,1.365,0,0,1-1-.32,2.008,2.008,0,0,1-.44-.6L111.6-4.28h-9.64L100.72-.92a2.151,2.151,0,0,1-.42.6A1.355,1.355,0,0,1,99.28,0ZM103.8-11.04h5.96l-3-9ZM129.6,0a1,1,0,0,1-.74-.3,1,1,0,0,1-.3-.74V-20.56h-6.88a1,1,0,0,1-.74-.3,1,1,0,0,1-.3-.74v-5.36a1,1,0,0,1,.3-.74,1.006,1.006,0,0,1,.74-.3h22.48a1,1,0,0,1,.74.3,1.006,1.006,0,0,1,.3.74v5.36a1,1,0,0,1-.3.74,1,1,0,0,1-.74.3h-6.88V-1.04a1,1,0,0,1-.3.74,1.006,1.006,0,0,1-.74.3Zm21.08,0a1.026,1.026,0,0,1-.72-.3.974.974,0,0,1-.32-.74V-26.96a.974.974,0,0,1,.32-.74,1.026,1.026,0,0,1,.72-.3h6.8a1,1,0,0,1,.74.3,1.006,1.006,0,0,1,.3.74V-1.04a1,1,0,0,1-.3.74,1,1,0,0,1-.74.3Zm15.08,0A1.073,1.073,0,0,1,165-.3a.974.974,0,0,1-.32-.74V-26.96a.974.974,0,0,1,.32-.74,1.074,1.074,0,0,1,.76-.3h5.32a1.38,1.38,0,0,1,1.08.4q.36.4.48.56l6.4,11.12,6.4-11.12q.12-.16.48-.56A1.38,1.38,0,0,1,187-28h5.32a1,1,0,0,1,.74.3,1.006,1.006,0,0,1,.3.74V-1.04a1.006,1.006,0,0,1-.3.74,1,1,0,0,1-.74.3h-6a1,1,0,0,1-.74-.3,1,1,0,0,1-.3-.74V-14l-3.6,6.32a3.654,3.654,0,0,1-.52.64,1.245,1.245,0,0,1-.92.32H177.8a1.189,1.189,0,0,1-.88-.32,3.655,3.655,0,0,1-.52-.64L172.8-14V-1.04a1,1,0,0,1-.3.74,1,1,0,0,1-.74.3ZM200.6,0a1.026,1.026,0,0,1-.72-.3.974.974,0,0,1-.32-.74V-26.96a.974.974,0,0,1,.32-.74,1.026,1.026,0,0,1,.72-.3h19.6a1.074,1.074,0,0,1,.76.3.974.974,0,0,1,.32.74v4.72a1,1,0,0,1-.32.72,1.038,1.038,0,0,1-.76.32H207.84v3.96h11.48a1.073,1.073,0,0,1,.76.3.974.974,0,0,1,.32.74v4.32a.974.974,0,0,1-.32.74,1.073,1.073,0,0,1-.76.3H207.84V-6.8h12.68a1.038,1.038,0,0,1,.76.32,1.038,1.038,0,0,1,.32.76v4.68a.974.974,0,0,1-.32.74,1.073,1.073,0,0,1-.76.3Z" transform="translate(100 64)" fill="#fff"/>
    <g id="Raggruppa_3" data-name="Raggruppa 3" transform="translate(130.341 30)">
      <g id="Raggruppa_1" data-name="Raggruppa 1" clip-path="url(#clip-path)">
        <path id="Tracciato_1" data-name="Tracciato 1" d="M14.928,2.4a4.081,4.081,0,0,0-2.985,1.045V.4a.4.4,0,0,0-.4-.4H10.279a.4.4,0,0,0-.4.4V3.447A4.081,4.081,0,0,0,6.9,2.4,9.021,9.021,0,0,0,0,5.908,9.021,9.021,0,0,0,6.9,9.413,3.861,3.861,0,0,0,10.26,7.93a3.444,3.444,0,0,0,.653-2.023,3.444,3.444,0,0,0,.653,2.023,3.861,3.861,0,0,0,3.363,1.482,9.021,9.021,0,0,0,6.9-3.505,9.021,9.021,0,0,0-6.9-3.505" transform="translate(0 -0.001)" fill="#91d35e"/>
      </g>
    </g>
  </g>
</svg>
