<svg xmlns="http://www.w3.org/2000/svg" width="341.564" height="147.301" viewBox="0 0 341.564 147.301">
  <g id="Raggruppa_2" data-name="Raggruppa 2" transform="translate(0 -0.001)">
    <g id="Raggruppa_4" data-name="Raggruppa 4">
      <path id="Tracciato_1" data-name="Tracciato 1" d="M233.627,37.588c-22.368,0-37.067,6.95-46.718,16.349V6.223A6.222,6.222,0,0,0,180.687,0h-19.81a6.222,6.222,0,0,0-6.222,6.222V53.937C145,44.538,130.3,37.588,107.937,37.588,38.862,37.588.006,92.437,0,92.445S38.862,147.3,107.937,147.3c27.535,0,43.449-10.532,52.632-23.2a53.9,53.9,0,0,0,10.213-31.657A53.894,53.894,0,0,0,180.995,124.1c9.183,12.668,25.1,23.2,52.632,23.2,69.075,0,107.931-54.849,107.937-54.857S302.7,37.588,233.627,37.588" fill="#92e254"/>
    </g>
  </g>
</svg>
