<svg xmlns="http://www.w3.org/2000/svg" xmlns:xlink="http://www.w3.org/1999/xlink" width="405.02" height="129.119" viewBox="0 0 405.02 129.119">
  <defs>
    <filter id="Tracciato_10" x="0" y="0" width="316.098" height="82.756" filterUnits="userSpaceOnUse">
      <feOffset dy="3" input="SourceAlpha"/>
      <feGaussianBlur stdDeviation="3" result="blur"/>
      <feFlood flood-opacity="0.161"/>
      <feComposite operator="in" in2="blur"/>
      <feComposite in="SourceGraphic"/>
    </filter>
    <filter id="Tracciato_11" x="97.488" y="68.87" width="132.794" height="60.249" filterUnits="userSpaceOnUse">
      <feOffset dy="3" input="SourceAlpha"/>
      <feGaussianBlur stdDeviation="3" result="blur-2"/>
      <feFlood flood-opacity="0.161"/>
      <feComposite operator="in" in2="blur-2"/>
      <feComposite in="SourceGraphic"/>
    </filter>
    <filter id="Tracciato_12" x="224.537" y="37.712" width="180.483" height="80.573" filterUnits="userSpaceOnUse">
      <feOffset dy="3" input="SourceAlpha"/>
      <feGaussianBlur stdDeviation="3" result="blur-3"/>
      <feFlood flood-opacity="0.161"/>
      <feComposite operator="in" in2="blur-3"/>
      <feComposite in="SourceGraphic"/>
    </filter>
  </defs>
  <g id="Raggruppa_6" data-name="Raggruppa 6" transform="translate(-818.769 -395.694)">
    <g transform="matrix(1, 0, 0, 1, 818.77, 395.69)" filter="url(#Tracciato_10)">
      <path id="Tracciato_10-2" data-name="Tracciato 10" d="M-143.8,0a.975.975,0,0,1-.72-.28A.975.975,0,0,1-144.8-1V-22.44h-7.28a.926.926,0,0,1-.68-.28.926.926,0,0,1-.28-.68V-27a.975.975,0,0,1,.28-.72.926.926,0,0,1,.68-.28h20.96a.975.975,0,0,1,.72.28.975.975,0,0,1,.28.72v3.6a.926.926,0,0,1-.28.68.975.975,0,0,1-.72.28h-7.24V-1a.975.975,0,0,1-.28.72.975.975,0,0,1-.72.28Zm18.52,0A.975.975,0,0,1-126-.28a.975.975,0,0,1-.28-.72V-27a.975.975,0,0,1,.28-.72.975.975,0,0,1,.72-.28h4.52a.975.975,0,0,1,.72.28.975.975,0,0,1,.28.72V-1a.975.975,0,0,1-.28.72.975.975,0,0,1-.72.28Zm12.44,0a.994.994,0,0,1-.7-.28.941.941,0,0,1-.3-.72V-27a.941.941,0,0,1,.3-.72.994.994,0,0,1,.7-.28h3.72a1.176,1.176,0,0,1,.9.32q.3.32.42.48l7.36,13.56L-93-27.2a2.454,2.454,0,0,1,.38-.48,1.176,1.176,0,0,1,.9-.32H-88a.975.975,0,0,1,.72.28A.975.975,0,0,1-87-27V-1a.975.975,0,0,1-.28.72A.975.975,0,0,1-88,0h-4.08a.926.926,0,0,1-.68-.28A.975.975,0,0,1-93.04-1V-17.16l-5.08,9.52a2.386,2.386,0,0,1-.52.64,1.229,1.229,0,0,1-.84.28h-1.88A1.229,1.229,0,0,1-102.2-7a2.386,2.386,0,0,1-.52-.64l-5.08-9.52V-1a.975.975,0,0,1-.28.72.926.926,0,0,1-.68.28Zm32.76,0a.975.975,0,0,1-.72-.28A.975.975,0,0,1-81.08-1V-27a.975.975,0,0,1,.28-.72.975.975,0,0,1,.72-.28h18.12a.975.975,0,0,1,.72.28.975.975,0,0,1,.28.72v3.2a.926.926,0,0,1-.28.68.975.975,0,0,1-.72.28H-74.92v6.28h12.08a.975.975,0,0,1,.72.28.975.975,0,0,1,.28.72v2.96a.926.926,0,0,1-.28.68.975.975,0,0,1-.72.28H-74.92v6.48h13.28a.975.975,0,0,1,.72.28.975.975,0,0,1,.28.72V-1a.975.975,0,0,1-.28.72.975.975,0,0,1-.72.28ZM-40.8,0a.975.975,0,0,1-.72-.28A.975.975,0,0,1-41.8-1V-22.44h-7.28a.926.926,0,0,1-.68-.28.926.926,0,0,1-.28-.68V-27a.975.975,0,0,1,.28-.72.926.926,0,0,1,.68-.28h20.96a.975.975,0,0,1,.72.28.975.975,0,0,1,.28.72v3.6a.926.926,0,0,1-.28.68.975.975,0,0,1-.72.28h-7.24V-1a.975.975,0,0,1-.28.72.975.975,0,0,1-.72.28Zm28.16.4A15.078,15.078,0,0,1-18.92-.8a9.151,9.151,0,0,1-4.12-3.62,12.309,12.309,0,0,1-1.6-6.1q-.04-1.72-.04-3.42t.04-3.46a12.25,12.25,0,0,1,1.62-6.06,9.421,9.421,0,0,1,4.16-3.7,14.587,14.587,0,0,1,6.22-1.24,14.485,14.485,0,0,1,6.18,1.24,9.543,9.543,0,0,1,4.18,3.7A11.84,11.84,0,0,1-.68-17.4q.08,1.76.08,3.46t-.08,3.42a12.309,12.309,0,0,1-1.6,6.1A9.151,9.151,0,0,1-6.4-.8,14.972,14.972,0,0,1-12.64.4Zm0-5.16A5.333,5.333,0,0,0-8.82-6.18a6.24,6.24,0,0,0,1.58-4.54q.08-1.76.08-3.3t-.08-3.26A7.369,7.369,0,0,0-8-20.68a4.6,4.6,0,0,0-1.9-1.94,5.807,5.807,0,0,0-2.74-.62,5.928,5.928,0,0,0-2.76.62,4.455,4.455,0,0,0-1.9,1.94,7.9,7.9,0,0,0-.78,3.4q-.04,1.72-.04,3.26t.04,3.3a6.418,6.418,0,0,0,1.6,4.54A5.316,5.316,0,0,0-12.64-4.76ZM14.2,0a.975.975,0,0,1-.72-.28A.975.975,0,0,1,13.2-1V-27a.975.975,0,0,1,.28-.72A.975.975,0,0,1,14.2-28H32.04a.975.975,0,0,1,.72.28.975.975,0,0,1,.28.72v3.4a.975.975,0,0,1-.28.72.975.975,0,0,1-.72.28H19.44v6.76h11.8a.975.975,0,0,1,.72.28.975.975,0,0,1,.28.72v3.4a.926.926,0,0,1-.28.68.975.975,0,0,1-.72.28H19.44V-1a.975.975,0,0,1-.28.72.975.975,0,0,1-.72.28ZM48.48.4A15.078,15.078,0,0,1,42.2-.8a9.151,9.151,0,0,1-4.12-3.62,12.309,12.309,0,0,1-1.6-6.1q-.04-1.72-.04-3.42t.04-3.46a12.25,12.25,0,0,1,1.62-6.06,9.421,9.421,0,0,1,4.16-3.7,14.587,14.587,0,0,1,6.22-1.24,14.485,14.485,0,0,1,6.18,1.24,9.543,9.543,0,0,1,4.18,3.7,11.84,11.84,0,0,1,1.6,6.06q.08,1.76.08,3.46t-.08,3.42a12.309,12.309,0,0,1-1.6,6.1A9.151,9.151,0,0,1,54.72-.8,14.972,14.972,0,0,1,48.48.4Zm0-5.16A5.333,5.333,0,0,0,52.3-6.18a6.24,6.24,0,0,0,1.58-4.54q.08-1.76.08-3.3t-.08-3.26a7.369,7.369,0,0,0-.76-3.4,4.6,4.6,0,0,0-1.9-1.94,5.807,5.807,0,0,0-2.74-.62,5.928,5.928,0,0,0-2.76.62,4.455,4.455,0,0,0-1.9,1.94,7.9,7.9,0,0,0-.78,3.4Q43-15.56,43-14.02t.04,3.3a6.418,6.418,0,0,0,1.6,4.54A5.316,5.316,0,0,0,48.48-4.76ZM76.6.4A14.632,14.632,0,0,1,70.22-.86a9.294,9.294,0,0,1-4.06-3.68,12.5,12.5,0,0,1-1.6-5.9q-.04-1.64-.04-3.52t.04-3.6a12.279,12.279,0,0,1,1.62-5.86,9.52,9.52,0,0,1,4.1-3.7A14.364,14.364,0,0,1,76.6-28.4a16.477,16.477,0,0,1,4.88.68,11.4,11.4,0,0,1,3.8,1.96,9.171,9.171,0,0,1,2.48,3,9.076,9.076,0,0,1,.96,3.84.783.783,0,0,1-.26.6.883.883,0,0,1-.62.24H83.28a1.129,1.129,0,0,1-.76-.24,1.617,1.617,0,0,1-.44-.8,5.1,5.1,0,0,0-2-3.24,6.421,6.421,0,0,0-3.48-.88,5.477,5.477,0,0,0-3.92,1.36q-1.44,1.36-1.56,4.52-.12,3.28,0,6.72.12,3.16,1.56,4.52A5.477,5.477,0,0,0,76.6-4.76a6.413,6.413,0,0,0,3.5-.9,4.978,4.978,0,0,0,1.98-3.22,1.52,1.52,0,0,1,.44-.82,1.2,1.2,0,0,1,.76-.22h4.56a.883.883,0,0,1,.62.24.783.783,0,0,1,.26.6,9.076,9.076,0,0,1-.96,3.84,9.171,9.171,0,0,1-2.48,3,11.4,11.4,0,0,1-3.8,1.96A16.477,16.477,0,0,1,76.6.4Zm28.04,0A14.978,14.978,0,0,1,98.48-.78,8.741,8.741,0,0,1,94.4-4.42a12.253,12.253,0,0,1-1.44-6.26V-27a.975.975,0,0,1,.28-.72.975.975,0,0,1,.72-.28h4.36a.975.975,0,0,1,.72.28.975.975,0,0,1,.28.72v16.28a6.1,6.1,0,0,0,1.4,4.4,5.215,5.215,0,0,0,3.92,1.44,5.161,5.161,0,0,0,3.88-1.44,6.1,6.1,0,0,0,1.4-4.4V-27a.941.941,0,0,1,.3-.72.994.994,0,0,1,.7-.28h4.4a.926.926,0,0,1,.68.28.975.975,0,0,1,.28.72v16.32a12.253,12.253,0,0,1-1.44,6.26A8.775,8.775,0,0,1,110.8-.78,14.8,14.8,0,0,1,104.64.4Zm27.4,0a16.152,16.152,0,0,1-6.42-1.12,9.262,9.262,0,0,1-3.9-2.92,6.849,6.849,0,0,1-1.4-3.84.835.835,0,0,1,.24-.58.783.783,0,0,1,.6-.26h4.28a1.27,1.27,0,0,1,.8.22,2.872,2.872,0,0,1,.52.54,4.233,4.233,0,0,0,.9,1.32,4.7,4.7,0,0,0,1.7,1.06,7.438,7.438,0,0,0,2.68.42,7.274,7.274,0,0,0,3.9-.84,2.592,2.592,0,0,0,1.3-2.28,2.169,2.169,0,0,0-.7-1.68,6.4,6.4,0,0,0-2.2-1.16q-1.5-.52-3.98-1.12a22.451,22.451,0,0,1-5.1-1.66,7.643,7.643,0,0,1-3.16-2.64,7.191,7.191,0,0,1-1.06-4.02,7.176,7.176,0,0,1,1.32-4.26,8.778,8.778,0,0,1,3.72-2.92,14.086,14.086,0,0,1,5.72-1.06,14.34,14.34,0,0,1,4.74.72,10.852,10.852,0,0,1,3.44,1.88,8.755,8.755,0,0,1,2.1,2.48,5.732,5.732,0,0,1,.76,2.56.835.835,0,0,1-.24.58.783.783,0,0,1-.6.26h-4.48a1.588,1.588,0,0,1-.72-.16,1.189,1.189,0,0,1-.52-.56,3.052,3.052,0,0,0-1.42-1.82,5.454,5.454,0,0,0-3.06-.78,5.766,5.766,0,0,0-3.1.72,2.423,2.423,0,0,0-1.14,2.2,2.367,2.367,0,0,0,.58,1.62,4.744,4.744,0,0,0,1.96,1.16q1.38.5,3.66,1.1a27.33,27.33,0,0,1,5.72,1.72,7.408,7.408,0,0,1,3.24,2.58,7.1,7.1,0,0,1,1.04,3.98,7.247,7.247,0,0,1-1.5,4.6,9.42,9.42,0,0,1-4.12,2.94A16.755,16.755,0,0,1,132.04.4Z" transform="translate(164.36 51.71) rotate(-7)" fill="#fff"/>
    </g>
    <g transform="matrix(1, 0, 0, 1, 818.77, 395.69)" filter="url(#Tracciato_11)">
      <path id="Tracciato_11-2" data-name="Tracciato 11" d="M-53.82,0a.975.975,0,0,1-.72-.28A.975.975,0,0,1-54.82-1V-27a.975.975,0,0,1,.28-.72.975.975,0,0,1,.72-.28h17.84a.975.975,0,0,1,.72.28.975.975,0,0,1,.28.72v3.4a.975.975,0,0,1-.28.72.975.975,0,0,1-.72.28h-12.6v6.76h11.8a.975.975,0,0,1,.72.28.975.975,0,0,1,.28.72v3.4a.926.926,0,0,1-.28.68.975.975,0,0,1-.72.28h-11.8V-1a.975.975,0,0,1-.28.72.975.975,0,0,1-.72.28Zm34.28.4A15.078,15.078,0,0,1-25.82-.8a9.151,9.151,0,0,1-4.12-3.62,12.309,12.309,0,0,1-1.6-6.1q-.04-1.72-.04-3.42t.04-3.46a12.25,12.25,0,0,1,1.62-6.06,9.421,9.421,0,0,1,4.16-3.7,14.587,14.587,0,0,1,6.22-1.24,14.485,14.485,0,0,1,6.18,1.24,9.543,9.543,0,0,1,4.18,3.7,11.84,11.84,0,0,1,1.6,6.06q.08,1.76.08,3.46t-.08,3.42a12.309,12.309,0,0,1-1.6,6.1A9.151,9.151,0,0,1-13.3-.8,14.972,14.972,0,0,1-19.54.4Zm0-5.16a5.333,5.333,0,0,0,3.82-1.42,6.24,6.24,0,0,0,1.58-4.54q.08-1.76.08-3.3t-.08-3.26a7.369,7.369,0,0,0-.76-3.4,4.6,4.6,0,0,0-1.9-1.94,5.807,5.807,0,0,0-2.74-.62,5.928,5.928,0,0,0-2.76.62,4.455,4.455,0,0,0-1.9,1.94,7.9,7.9,0,0,0-.78,3.4q-.04,1.72-.04,3.26t.04,3.3a6.418,6.418,0,0,0,1.6,4.54A5.316,5.316,0,0,0-19.54-4.76ZM-1.54,0a.975.975,0,0,1-.72-.28A.975.975,0,0,1-2.54-1V-27a.975.975,0,0,1,.28-.72A.975.975,0,0,1-1.54-28H9.06q5,0,7.88,2.3a7.975,7.975,0,0,1,2.88,6.62,8.182,8.182,0,0,1-1.4,4.88,8.39,8.39,0,0,1-3.76,2.92l5.64,10a1,1,0,0,1,.12.44.835.835,0,0,1-.24.58.783.783,0,0,1-.6.26H15.14a1.42,1.42,0,0,1-1.08-.38,3.035,3.035,0,0,1-.52-.7L8.66-10.24H3.82V-1a.975.975,0,0,1-.28.72A.975.975,0,0,1,2.82,0ZM3.82-15.32H8.94a4.61,4.61,0,0,0,3.26-1,3.663,3.663,0,0,0,1.06-2.8,3.838,3.838,0,0,0-1.04-2.84A4.483,4.483,0,0,0,8.94-23H3.82ZM30.94,0a.783.783,0,0,1-.6-.26.835.835,0,0,1-.24-.58,1.487,1.487,0,0,1,.04-.36l9.52-25.72a1.546,1.546,0,0,1,.48-.76,1.453,1.453,0,0,1,1-.32h5.12a1.453,1.453,0,0,1,1,.32,1.546,1.546,0,0,1,.48.76L57.26-1.2a1.487,1.487,0,0,1,.04.36.835.835,0,0,1-.24.58.783.783,0,0,1-.6.26H52.3a1.2,1.2,0,0,1-.88-.28,1.411,1.411,0,0,1-.36-.52L49.34-5.28H38.06L36.34-.8a1.411,1.411,0,0,1-.36.52A1.2,1.2,0,0,1,35.1,0Zm8.6-10.44h8.28L43.7-21.96Z" transform="translate(164.36 110.04) rotate(-7)" fill="#fff"/>
    </g>
    <g transform="matrix(1, 0, 0, 1, 818.77, 395.69)" filter="url(#Tracciato_12)">
      <path id="Tracciato_12-2" data-name="Tracciato 12" d="M-51.85-5.2a40.361,40.361,0,0,1-5.3,4.4,35.034,35.034,0,0,1-3.925,2.4A7.194,7.194,0,0,1-64,2.6a1.44,1.44,0,0,1-.875-.275A.957.957,0,0,1-65.25,1.5a1.838,1.838,0,0,1,.6-1.375A4.356,4.356,0,0,1-63.05-.8a9.492,9.492,0,0,1,1.4-.4,7.4,7.4,0,0,0,2.05-.65,24.724,24.724,0,0,0,3.975-2.625A30.863,30.863,0,0,0-52.05-7.65a28.838,28.838,0,0,0,3.275-4.075A6.774,6.774,0,0,0-47.65-15.4a1.588,1.588,0,0,0-1-1.525A5.684,5.684,0,0,0-51.1-17.4a17.044,17.044,0,0,0-6.75,1.3q-1.35.6-1.85.85-1.8.8-2.95,1.25-1.3.5-2.5.875t-1.6.525l.1,1.9q0,.75.075,2.4t.075,3.1A25.517,25.517,0,0,1-67,.4a2.824,2.824,0,0,1-.45,1,1.2,1.2,0,0,1-.95.3,1.393,1.393,0,0,1-.85-.3.905.905,0,0,1-.4-.75,16.644,16.644,0,0,1,.45-1.7,10.01,10.01,0,0,0,.45-2.75q0-3.9-.35-9.95l-.15-2.3q-.3-3.3-.3-5.2,0-1.45.2-3.675t.3-2.925a34.318,34.318,0,0,0-4.85,1.8,13.607,13.607,0,0,0-2.2,1.25,4.292,4.292,0,0,1-1.7.8.9.9,0,0,1-.7-.35,1.262,1.262,0,0,1-.3-.85q0-.95,3.35-2.45a56.522,56.522,0,0,1,7.3-2.65,61.111,61.111,0,0,1,6.3-1.55,31.524,31.524,0,0,1,5.65-.5,8.736,8.736,0,0,1,4.425,1.025A3.177,3.177,0,0,1-50-28.45q0,4.4-4.8,9.1a28.449,28.449,0,0,1,3.9-.3,7.788,7.788,0,0,1,3.95.95,3.392,3.392,0,0,1,1.65,3.2,8.225,8.225,0,0,1-1.75,4.825A46.557,46.557,0,0,1-51.85-5.2ZM-56.6-30.25a35.171,35.171,0,0,0-5.15.475,32.358,32.358,0,0,0-4.8,1.025,24.291,24.291,0,0,0-.85,5.7q0,3.25.3,8.2a9.48,9.48,0,0,0,1.625-.4Q-64.35-15.6-63.4-16a23.97,23.97,0,0,0,7.9-5.2q3.15-3.2,3.15-6.6a1.977,1.977,0,0,0-1.15-1.825A6.515,6.515,0,0,0-56.6-30.25ZM-12.95-1.4a2.6,2.6,0,0,1-.95-.175,12.327,12.327,0,0,1-1.35-.675,46.155,46.155,0,0,0-8.25-3.6q-2.25-.75-5.325-1.575T-33.65-8.65l.35,6.45A8.479,8.479,0,0,0-32.95.075a5.428,5.428,0,0,1,.3,1.175,1.1,1.1,0,0,1-.55.925,2.011,2.011,0,0,1-1.15.375q-.75,0-.95-1.05,0-.1-.125-.9a15.485,15.485,0,0,1-.125-2.25q0-.95-.2-4.05-.05-1.05-.1-2.025T-35.9-9.45q-.15-.15-.375-.35a1.525,1.525,0,0,1-.375-.55,7.9,7.9,0,0,1-.25-.95,4.211,4.211,0,0,1-.1-.75.743.743,0,0,1,.2-.55,3.47,3.47,0,0,1,.6-.45q-.3-12.5-.3-14.3,0-1.6.05-2.95t.05-1.8q-.3.05-1.8.25t-2.4.4a35.516,35.516,0,0,0-4.875,1.425A30.093,30.093,0,0,0-48.7-28.5a5.064,5.064,0,0,1-.875.475,2.16,2.16,0,0,1-.825.175.88.88,0,0,1-.7-.375,1.434,1.434,0,0,1-.3-.925q0-.95,3.2-2.2a44.746,44.746,0,0,1,6.95-2.05,50.127,50.127,0,0,1,5.35-.775q3.25-.325,6.05-.325a27.761,27.761,0,0,1,8.175,1.05,11.23,11.23,0,0,1,5.1,2.95,6.287,6.287,0,0,1,1.725,4.35,8.376,8.376,0,0,1-1.8,5.4,15.856,15.856,0,0,1-4.775,3.9A80.313,80.313,0,0,1-29.5-13.1q-1.3.6-2.575,1.1t-1.725.7a1.517,1.517,0,0,0,.05.45q5.4,1.2,10.65,2.75l1.05.3Q-16.6-6.15-14-5.225T-11.4-3.7a3.007,3.007,0,0,1-.5,1.45Q-12.4-1.4-12.95-1.4Zm-17.3-30.95q-3.1,0-3.9.1-.05.35-.125,1.65T-34.35-28l.2,8,.2,6.2a11.611,11.611,0,0,0,1.775-.475A22.5,22.5,0,0,0-29.95-15.1a36.841,36.841,0,0,0,9.475-5.125A7.547,7.547,0,0,0-17.35-26.15,4.189,4.189,0,0,0-18.8-29.2a10.629,10.629,0,0,0-4.375-2.275A24.921,24.921,0,0,0-30.25-32.35Zm46,1.5a22.314,22.314,0,0,1-4.225,1.6Q8.65-28.4,6.8-28.05q-2.9.55-5.825.875T-2.8-26.8q.05,2.9.15,5.975T-2.5-16.6q1.95-.25,5.85-.95l1.9-.3a10.024,10.024,0,0,0,4.85-2,2.732,2.732,0,0,1,1.3-.7.661.661,0,0,1,.575.375,1.487,1.487,0,0,1,.225.775q0,.9-2.025,1.975A16.542,16.542,0,0,1,5.7-15.85q-2.05.45-4.6.85t-3.35.5Q-1.95-5.95-.5-1.8a17.037,17.037,0,0,0,2.85.725,23.457,23.457,0,0,0,3.6.225,15.127,15.127,0,0,0,4.2-.575A11,11,0,0,0,13.375-2.85Q14.6-3.7,14.6-4.45a2.068,2.068,0,0,0-.15-.775A4.916,4.916,0,0,0,14.05-6q-.1-.15-.325-.475A1.023,1.023,0,0,1,13.5-7q0-.5,1.1-.5a1.751,1.751,0,0,1,1.375.675A2.227,2.227,0,0,1,16.55-5.35,4.67,4.67,0,0,1,15.125-2.2a10.341,10.341,0,0,1-3.9,2.525A14.817,14.817,0,0,1,5.75,1.3a31.41,31.41,0,0,1-5-.325A5.5,5.5,0,0,1-2.2-.3,9.121,9.121,0,0,1-3.875-5Q-4.35-8.35-4.7-13.95a19.925,19.925,0,0,1-2.125.425A13.156,13.156,0,0,1-8.6-13.35a1.319,1.319,0,0,1-.975-.375,1.257,1.257,0,0,1-.375-.925,1.329,1.329,0,0,1,.125-.6.521.521,0,0,1,.375-.3q1.65-.2,2.4-.25l2.15-.25q-.2-6.45-.4-10.5a11.381,11.381,0,0,0-1.2.05l-2.3.05a.946.946,0,0,1-.7-.25.765.765,0,0,1-.25-.55q0-1.2,1.6-1.6.6-.1,1.525-.225A11.629,11.629,0,0,1-5.4-29.2a2.8,2.8,0,0,1,2.1-1.05q.2,0,.325.325a1.524,1.524,0,0,1,.125.475Q.45-29.6,5-30.2q3-.4,9.25-1.9l1.85-.4q.5,0,.5.6T15.75-30.85ZM46.4-14.25a3.517,3.517,0,0,1-1.45.525q-1.1.225-1.5.275.4,1.9.4,1.85.35,1.25.75,3.45.9,5.05,1.85,8.6A11.306,11.306,0,0,1,46.7,1.8a1.089,1.089,0,0,1-.4.85,1.4,1.4,0,0,1-.95.35,1.133,1.133,0,0,1-.9-.525,3.809,3.809,0,0,1-.55-.925q-.45-1.7-.825-3.8T42.2-7.3q-.2-1.3-.65-3.225t-.6-2.525q-2.95.4-10.15,1.6l-2.9.5L26.85-8l-1.4,4q-1.75,5.45-2.5,8.4a2.4,2.4,0,0,1-.6,1.175,1.457,1.457,0,0,1-1.1.475,1.434,1.434,0,0,1-.925-.3,1.026,1.026,0,0,1-.375-.85,9.716,9.716,0,0,1,.6-2.325Q21.15.8,21.25.45q.2-.5.8-2.3.65-1.95,1.675-4.725T25.1-10.25q-2.55.6-3.8.95a13.892,13.892,0,0,1-2.35.5.917.917,0,0,1-.825-.425,1.67,1.67,0,0,1-.275-.925.974.974,0,0,1,.3-.825,3.224,3.224,0,0,1,1-.425q1.9-.45,4.025-.9t2.925-.6q.5-1.45.75-2.45.2-.65.525-1.625T28.1-19.4l.75-2.55q1.9-6.7,2.2-7.65a7.385,7.385,0,0,1,.475-1.1.691.691,0,0,1,.625-.4,5.1,5.1,0,0,1,1.8.3,3.617,3.617,0,0,0,.325-.425,1.259,1.259,0,0,1,.5-.45A1.771,1.771,0,0,1,35.5-31.8q.9,0,2.075,2.05A37.048,37.048,0,0,1,39.85-24.9q.65,1.65,1.65,4.925t1.3,4.325a7.016,7.016,0,0,0,1.275-.275l.675-.225a2.125,2.125,0,0,0,.55-.35,2.939,2.939,0,0,1,.55-.375.589.589,0,0,1,.55.025,1.233,1.233,0,0,1,.65,1.25,1.878,1.878,0,0,1-.175.75A1.342,1.342,0,0,1,46.4-14.25ZM37.95-23.7a27.752,27.752,0,0,0-1.8-3.8,7.616,7.616,0,0,0-1.85-2.45l-.55,1.3A25,25,0,0,0,32.3-25.2q-1.2,3.6-3.8,11.9l5.85-1,4.8-.75,1.35-.2-1.05-3.775Q38.65-21.9,37.95-23.7ZM77.6-2.7q-2.45,0-10.45-3.35l-1.35-.6q-2.85-1.2-4.425-1.8t-3.025-1a84.747,84.747,0,0,1-.3,8.7q-.55,2-1.45,2A1.456,1.456,0,0,1,55.775,1,.753.753,0,0,1,55.4.35q0-.9.15-2.45.3-3.2.3-5.5V-9.7a3.681,3.681,0,0,1-.725-.625.96.96,0,0,1-.225-.625,1.364,1.364,0,0,1,.275-.825,4.945,4.945,0,0,1,.625-.7A4.38,4.38,0,0,0,56.3-13q.05-1.05.05-3.65A55.667,55.667,0,0,0,54.5-30.4l-.2-1a1.269,1.269,0,0,1,.575-1.1,2.263,2.263,0,0,1,1.325-.4q.55,0,1.125,2.15a36.592,36.592,0,0,1,.925,5.475A63.719,63.719,0,0,1,58.6-18.6v3.35q.7-.75,3.15-3.45t4.8-5.4a61.414,61.414,0,0,0,6.1-8.3q.55-1,1.35-2.6.75-1.55.95-1.55.55,0,.55,1.2a8.57,8.57,0,0,1-.45,2.775,16.652,16.652,0,0,1-1.3,2.825,42.672,42.672,0,0,1-3.225,4.825Q68.7-22.55,65.9-19.55q-1.05,1.1-1.85,1.9t-1.4,1.45q-2.6,2.6-4.15,4.35.65.25,3.025,1.1T67.7-8.6q2.7.95,4.5,1.525T75.3-6.05q.3.1.7.225t.85.275q1.7.55,1.7,1.2a2.192,2.192,0,0,1-.3,1.15Q77.95-2.7,77.6-2.7Z" transform="translate(316.76 90.12) rotate(-7)" fill="#91d35e" stroke="#91d35e" stroke-width="1"/>
    </g>
    <line id="Linea_4" data-name="Linea 4" x1="163" y2="45" transform="translate(981.5 401.5)" fill="none" stroke="#91d35e" stroke-width="3"/>
  </g>
</svg>
