<svg xmlns="http://www.w3.org/2000/svg" xmlns:xlink="http://www.w3.org/1999/xlink" width="414.075" height="64.412" viewBox="0 0 414.075 64.412">
  <defs>
    <clipPath id="clip-path">
      <rect id="Rettangolo_6" data-name="Rettangolo 6" width="41.239" height="17.785" fill="none"/>
    </clipPath>
  </defs>
  <g id="Raggruppa_11" data-name="Raggruppa 11" transform="translate(-187.425 -212.338)">
    <path id="Tracciato_9" data-name="Tracciato 9" d="M18.225,0a1.885,1.885,0,0,1-1.387-.562,1.885,1.885,0,0,1-.562-1.388v-36.6H3.375a1.885,1.885,0,0,1-1.388-.563A1.885,1.885,0,0,1,1.425-40.5V-50.55a1.885,1.885,0,0,1,.563-1.388A1.885,1.885,0,0,1,3.375-52.5h42.15a1.885,1.885,0,0,1,1.387.563,1.885,1.885,0,0,1,.563,1.388V-40.5a1.885,1.885,0,0,1-.562,1.387,1.885,1.885,0,0,1-1.387.563h-12.9v36.6a1.885,1.885,0,0,1-.563,1.388A1.885,1.885,0,0,1,30.675,0Zm59.55.75A31.739,31.739,0,0,1,65.288-1.5a18.453,18.453,0,0,1-8.325-6.788A21.164,21.164,0,0,1,53.7-19.575q-.075-3.15-.075-6.488T53.7-32.7a21.232,21.232,0,0,1,3.263-11.25,19.052,19.052,0,0,1,8.363-6.938,30.474,30.474,0,0,1,12.45-2.362A30.273,30.273,0,0,1,90.15-50.888a19.3,19.3,0,0,1,8.4,6.938,20.57,20.57,0,0,1,3.225,11.25q.15,3.3.15,6.637t-.15,6.488A21.163,21.163,0,0,1,98.513-8.288,18.453,18.453,0,0,1,90.188-1.5,31.527,31.527,0,0,1,77.775.75Zm0-12.75a7.234,7.234,0,0,0,5.175-1.912q2.025-1.912,2.1-6.113.15-3.225.15-6.262t-.15-6.188a10.491,10.491,0,0,0-1.012-4.575,5.9,5.9,0,0,0-2.55-2.625,8.039,8.039,0,0,0-3.713-.825,8.272,8.272,0,0,0-3.75.825,5.845,5.845,0,0,0-2.588,2.625,10.491,10.491,0,0,0-1.012,4.575q-.075,3.15-.075,6.188t.075,6.262q.15,4.2,2.137,6.113A7.2,7.2,0,0,0,77.775-12Zm36.15,12A2.013,2.013,0,0,1,112.5-.562a1.827,1.827,0,0,1-.6-1.388v-48.6a1.827,1.827,0,0,1,.6-1.388,2.013,2.013,0,0,1,1.425-.562H123.9a2.587,2.587,0,0,1,2.025.75q.675.75.9,1.05l12,20.85,12-20.85q.225-.3.9-1.05a2.587,2.587,0,0,1,2.025-.75h9.975a1.885,1.885,0,0,1,1.387.563,1.885,1.885,0,0,1,.563,1.388v48.6a1.885,1.885,0,0,1-.562,1.388A1.885,1.885,0,0,1,163.725,0h-11.25a1.885,1.885,0,0,1-1.388-.562,1.885,1.885,0,0,1-.562-1.388v-24.3l-6.75,11.85a6.853,6.853,0,0,1-.975,1.2,2.335,2.335,0,0,1-1.725.6H136.5a2.23,2.23,0,0,1-1.65-.6,6.852,6.852,0,0,1-.975-1.2l-6.75-11.85v24.3a1.885,1.885,0,0,1-.562,1.388A1.885,1.885,0,0,1,125.175,0ZM174.6,0a1.467,1.467,0,0,1-1.125-.488,1.655,1.655,0,0,1-.45-1.163,1.662,1.662,0,0,1,.075-.525l17.1-48a4.348,4.348,0,0,1,1.05-1.575,2.839,2.839,0,0,1,2.1-.75h13.725a2.946,2.946,0,0,1,2.175.75,3.581,3.581,0,0,1,.975,1.575l17.175,48a1.662,1.662,0,0,1,.075.525,1.587,1.587,0,0,1-.487,1.163A1.587,1.587,0,0,1,225.825,0h-11.55A2.559,2.559,0,0,1,212.4-.6a3.765,3.765,0,0,1-.825-1.125l-2.325-6.3H191.175l-2.325,6.3A4.033,4.033,0,0,1,188.063-.6a2.54,2.54,0,0,1-1.913.6Zm20.025-20.7H205.8l-5.625-16.875ZM243,0a1.885,1.885,0,0,1-1.388-.562,1.885,1.885,0,0,1-.562-1.388v-36.6h-12.9a1.885,1.885,0,0,1-1.387-.563A1.885,1.885,0,0,1,226.2-40.5V-50.55a1.885,1.885,0,0,1,.563-1.388,1.885,1.885,0,0,1,1.387-.562H270.3a1.885,1.885,0,0,1,1.388.563,1.885,1.885,0,0,1,.563,1.388V-40.5a1.885,1.885,0,0,1-.562,1.387,1.885,1.885,0,0,1-1.388.563H257.4v36.6a1.885,1.885,0,0,1-.562,1.388A1.885,1.885,0,0,1,255.45,0Zm39.525,0a1.925,1.925,0,0,1-1.35-.562,1.827,1.827,0,0,1-.6-1.388v-48.6a1.827,1.827,0,0,1,.6-1.388,1.925,1.925,0,0,1,1.35-.562h12.75a1.885,1.885,0,0,1,1.387.563,1.885,1.885,0,0,1,.563,1.388v48.6a1.885,1.885,0,0,1-.562,1.388A1.885,1.885,0,0,1,295.275,0ZM310.8,0a2.013,2.013,0,0,1-1.425-.562,1.827,1.827,0,0,1-.6-1.388v-48.6a1.827,1.827,0,0,1,.6-1.388A2.013,2.013,0,0,1,310.8-52.5h9.975a2.587,2.587,0,0,1,2.025.75q.675.75.9,1.05l12,20.85,12-20.85q.225-.3.9-1.05a2.587,2.587,0,0,1,2.025-.75H360.6a1.885,1.885,0,0,1,1.387.563,1.885,1.885,0,0,1,.563,1.388v48.6a1.885,1.885,0,0,1-.562,1.388A1.885,1.885,0,0,1,360.6,0H349.35a1.885,1.885,0,0,1-1.388-.562A1.885,1.885,0,0,1,347.4-1.95v-24.3L340.65-14.4a6.853,6.853,0,0,1-.975,1.2,2.335,2.335,0,0,1-1.725.6h-4.575a2.23,2.23,0,0,1-1.65-.6,6.853,6.853,0,0,1-.975-1.2L324-26.25v24.3a1.885,1.885,0,0,1-.562,1.388A1.885,1.885,0,0,1,322.05,0Zm65.325,0a1.925,1.925,0,0,1-1.35-.562,1.827,1.827,0,0,1-.6-1.388v-48.6a1.827,1.827,0,0,1,.6-1.388,1.925,1.925,0,0,1,1.35-.562h36.75a2.013,2.013,0,0,1,1.425.563,1.827,1.827,0,0,1,.6,1.388v8.85a1.865,1.865,0,0,1-.6,1.35,1.947,1.947,0,0,1-1.425.6H389.7v7.425h21.525a2.013,2.013,0,0,1,1.425.562,1.827,1.827,0,0,1,.6,1.388v8.1a1.827,1.827,0,0,1-.6,1.388,2.013,2.013,0,0,1-1.425.562H389.7v7.575h23.775a1.947,1.947,0,0,1,1.425.6,1.947,1.947,0,0,1,.6,1.425V-1.95a1.827,1.827,0,0,1-.6,1.388A2.013,2.013,0,0,1,413.475,0Z" transform="translate(186 276)" fill="#fff"/>
    <g id="Raggruppa_3" data-name="Raggruppa 3" transform="translate(242.775 212.338)">
      <g id="Raggruppa_1" data-name="Raggruppa 1" clip-path="url(#clip-path)">
        <path id="Tracciato_1" data-name="Tracciato 1" d="M28.207,4.539a7.712,7.712,0,0,0-5.641,1.974V.752A.751.751,0,0,0,21.815,0H19.424a.751.751,0,0,0-.751.751V6.513a7.712,7.712,0,0,0-5.641-1.974C4.692,4.539,0,11.161,0,11.162s4.692,6.623,13.032,6.623c3.324,0,5.246-1.272,6.355-2.8a6.508,6.508,0,0,0,1.233-3.822,6.507,6.507,0,0,0,1.233,3.822c1.109,1.529,3.03,2.8,6.355,2.8,8.34,0,13.031-6.622,13.032-6.623S36.547,4.539,28.207,4.539" transform="translate(0 -0.001)" fill="#91d35e"/>
      </g>
    </g>
  </g>
</svg>
